<?xml version="1.0" encoding="utf-8"?>
<!-- Generator: Adobe Illustrator 19.0.0, SVG Export Plug-In . SVG Version: 6.00 Build 0)  -->
<svg version="1.1" id="Layer_1" xmlns="http://www.w3.org/2000/svg" xmlns:xlink="http://www.w3.org/1999/xlink" x="0px" y="0px"
	 viewBox="-130 252.5 334.9 336.4" style="enable-background:new -130 252.5 334.9 336.4;" xml:space="preserve">
<style type="text/css">
	.st0{fill:#FFFFFF;}
</style>
<g id="XMLID_9_">
	<path id="XMLID_12_" class="st0" d="M192.2,428c-8.1-1.2-15.7,4.4-16.8,12.6c-5.3,36.3-24.3,68.4-53.5,90.6
		c-60.9,46.1-148,34.1-194.1-26.8s-34.1-148,26.8-194.1c55.1-41.8,133.2-36.4,181.8,12.6c2.6,2.6,15.1,16.5,21.6,28.8
		c4.3,8,6.3,11.7,6.3,11.8c3.5,9.9,5.1,17.8-1.7,23c-6.9,5.2-15.2,3.4-20.1-3.1c-0.5-0.6-1-1.1-1.5-1.7c-0.4-0.6-0.7-1.3-1.2-1.9
		l-37-48.9c-0.1-0.1-0.1-0.1-0.2-0.2c-14.9-19.1-42.8-22.6-62.6-7.6c-4,3.1-17.6,18.1-25,55.8c16.2,1.9,26.7,6.4,26.7,6.4
		c3.8-20,8.5-32.3,16.2-38.5c6.9-5.2,16.4-4.2,21.3,2.3l36.9,48.7c0.5,0.6,1,1.1,1.5,1.7c0.4,0.6,0.7,1.3,1.2,1.9
		c14.8,19.5,41.7,24.1,62.9,8c18.7-16.6,19.2-41.3,3.2-71.9c-20.1-29.9-21.6-29.7-27.4-35.5c-59-59.5-154-66.2-220.9-15.5
		c-73.9,56-88.6,161.8-32.5,235.7c56,74,161.8,88.6,235.7,32.6c35.5-26.9,58.6-65.9,64.9-110C205.9,436.7,200.3,429.1,192.2,428z"/>
	<path id="XMLID_10_" class="st0" d="M51.4,438.9c-3.4-5.7-0.7-10.8-35.7-20.6c0,0,15.9,82.5,64.1,62.9c6.2-0.9,45.8-27.1-4.4-71.6
		c-38.9-29.5-93.5-35.2-132.3-12.4c-18.2,10.7-24.2,42.3-9.8,61.8c0.1,0.1,0.1,0.2,0.2,0.2l53.9,71.2c5,6.5,14.3,7.8,20.8,2.9
		c6.5-5,7.8-14.3,2.9-20.8l-53.7-71c-4.9-6.4-3.3-15.9,3.6-21.1c3.2-2.4,42.3-22.5,86.6,4.7c7.5,4.6,14.4,10,21.7,18.6
		c1.7,2,2.7,3.4,3.4,5c2,5.1-3.3,9.2-6.9,7.6C62,455.7,52.7,442.8,51.4,438.9z"/>
</g>
</svg>
