<?xml version="1.0" encoding="UTF-8" standalone="no"?>
<svg width="30px" height="30px" viewBox="0 0 30 30" version="1.1" xmlns="http://www.w3.org/2000/svg" xmlns:xlink="http://www.w3.org/1999/xlink">
    <!-- Generator: Sketch 40.3 (33839) - http://www.bohemiancoding.com/sketch -->
    <title>ic_account_circle</title>
    <desc>Created with Sketch.</desc>
    <defs></defs>
    <g id="Page-1" stroke="none" stroke-width="1" fill="none" fill-rule="evenodd">
        <g id="Login" transform="translate(-891.000000, -479.000000)">
            <g id="ic_account_circle" transform="translate(888.000000, 476.000000)">
                <polygon id="Bounds" fill-opacity="0" fill="#FF0000" points="0 0 36 0 36 36 0 36"></polygon>
                <path d="M18,3 C9.72,3 3,9.72 3,18 C3,26.28 9.72,33 18,33 C26.28,33 33,26.28 33,18 C33,9.72 26.28,3 18,3 L18,3 Z M18,7.5 C20.49,7.5 22.5,9.51 22.5,12 C22.5,14.49 20.49,16.5 18,16.5 C15.51,16.5 13.5,14.49 13.5,12 C13.5,9.51 15.51,7.5 18,7.5 L18,7.5 Z M18,28.8 C14.25,28.8 10.935,26.88 9,23.97 C9.045,20.985 15,19.35 18,19.35 C20.985,19.35 26.955,20.985 27,23.97 C25.065,26.88 21.75,28.8 18,28.8 L18,28.8 Z" id="Shape" fill="#007336"></path>
            </g>
        </g>
    </g>
</svg>