<?xml version="1.0" encoding="UTF-8" standalone="no"?>
<svg width="22px" height="29px" viewBox="0 0 22 29" version="1.1" xmlns="http://www.w3.org/2000/svg" xmlns:xlink="http://www.w3.org/1999/xlink">
    <!-- Generator: Sketch 40.3 (33839) - http://www.bohemiancoding.com/sketch -->
    <title>ic_lock</title>
    <desc>Created with Sketch.</desc>
    <defs></defs>
    <g id="Page-1" stroke="none" stroke-width="1" fill="none" fill-rule="evenodd">
        <g id="Login" transform="translate(-895.000000, -548.000000)">
            <g id="ic_lock" transform="translate(890.000000, 547.000000)">
                <polygon id="Bounds" fill-opacity="0" fill="#FF0000" points="0 0 32 0 32 32 0 32"></polygon>
                <path d="M24,10.6666667 L22.6666667,10.6666667 L22.6666667,8 C22.6666667,4.32 19.68,1.33333333 16,1.33333333 C12.32,1.33333333 9.33333333,4.32 9.33333333,8 L9.33333333,10.6666667 L8,10.6666667 C6.53333333,10.6666667 5.33333333,11.8666667 5.33333333,13.3333333 L5.33333333,26.6666667 C5.33333333,28.1333333 6.53333333,29.3333333 8,29.3333333 L24,29.3333333 C25.4666667,29.3333333 26.6666667,28.1333333 26.6666667,26.6666667 L26.6666667,13.3333333 C26.6666667,11.8666667 25.4666667,10.6666667 24,10.6666667 L24,10.6666667 Z M16,22.6666667 C14.5333333,22.6666667 13.3333333,21.4666667 13.3333333,20 C13.3333333,18.5333333 14.5333333,17.3333333 16,17.3333333 C17.4666667,17.3333333 18.6666667,18.5333333 18.6666667,20 C18.6666667,21.4666667 17.4666667,22.6666667 16,22.6666667 L16,22.6666667 Z M20.1333333,10.6666667 L11.8666667,10.6666667 L11.8666667,8 C11.8666667,5.72 13.72,3.86666667 16,3.86666667 C18.28,3.86666667 20.1333333,5.72 20.1333333,8 L20.1333333,10.6666667 L20.1333333,10.6666667 Z" id="Shape" fill="#007336"></path>
            </g>
        </g>
    </g>
</svg>